<?xml version="1.0" standalone="no"?><svg xmlns="http://www.w3.org/2000/svg" viewBox="0 0 1440 320"><path fill="#0099ff" fill-opacity="1" d="M0,96L21.8,85.3C43.6,75,87,53,131,58.7C174.5,64,218,96,262,122.7C305.5,149,349,171,393,165.3C436.4,160,480,128,524,138.7C567.3,149,611,203,655,229.3C698.2,256,742,256,785,256C829.1,256,873,256,916,213.3C960,171,1004,85,1047,96C1090.9,107,1135,213,1178,240C1221.8,267,1265,213,1309,181.3C1352.7,149,1396,139,1418,133.3L1440,128L1440,320L1418.2,320C1396.4,320,1353,320,1309,320C1265.5,320,1222,320,1178,320C1134.5,320,1091,320,1047,320C1003.6,320,960,320,916,320C872.7,320,829,320,785,320C741.8,320,698,320,655,320C610.9,320,567,320,524,320C480,320,436,320,393,320C349.1,320,305,320,262,320C218.2,320,175,320,131,320C87.3,320,44,320,22,320L0,320Z"></path></svg>